<?xml version="1.0" encoding="iso-8859-1"?>
<!-- Generator: Adobe Illustrator 19.0.0, SVG Export Plug-In . SVG Version: 6.00 Build 0)  -->
<svg fill="#B7791F" version="1.1" id="Layer_1" xmlns="http://www.w3.org/2000/svg" xmlns:xlink="http://www.w3.org/1999/xlink" x="0px" y="0px"
	 viewBox="0 0 511.996 511.996" style="enable-background:new 0 0 511.996 511.996;" xml:space="preserve">
<g>
	<g>
		<path d="M431.571,229.096c-2.968,0-5.279,0.174-8.827,0.49v35.628h0.004c0,0.076,0.04,0.151,0.039,0.228
			c2.843-0.566,5.802-0.869,8.809-0.869c24.76,0,44.914,20.143,44.914,44.904s-20.139,44.903-44.899,44.903
			c-9.524,0-18.354-2.988-25.628-8.064c-4.214,9.709-9.165,19.13-14.894,28.155c-0.671,1.057-1.375,2.087-2.065,3.13
			c12.358,7.754,26.955,12.258,42.59,12.258c44.323,0,80.382-36.059,80.382-80.382S475.894,229.096,431.571,229.096z"/>
	</g>
</g>
<g>
	<g>
		<path d="M444.057,417.622h-89.983h-39.435c51.954-31.93,84.457-90.187,84.457-152.409v-61.642H62.054v61.642
			c0,62.223,33.15,120.479,85.104,152.409h-39.434H17.739C7.942,417.622,0,425.564,0,435.361S7.942,453.1,17.739,453.1h38.373
			h24.177c4.641,17.739,20.272,29.565,38.8,29.565h223.512c18.527,0,34.16-11.826,38.8-29.565h24.177h38.478
			c9.797,0,17.739-7.942,17.739-17.739S453.854,417.622,444.057,417.622z"/>
	</g>
</g>
<g>
	<g>
		<path d="M177.756,148.643l-8.7-6.992c-3.355-2.696-5.246-6.71-5.188-11.014c0.058-4.303,2.057-8.265,5.484-10.869
			c12.012-9.13,19.112-23.016,19.48-38.1s-6.047-29.299-17.599-39.003c-7.501-6.301-18.691-5.328-24.993,2.174
			c-6.301,7.501-5.328,18.691,2.174,24.993c4.45,3.737,5.012,8.478,4.952,10.972c-0.06,2.493-0.854,7.201-5.48,10.718
			c-12.18,9.256-19.285,23.338-19.49,38.635c-0.207,15.297,6.513,29.566,18.439,39.15l8.7,6.992
			c3.277,2.633,7.201,3.912,11.101,3.912c5.19,0,10.335-2.267,13.839-6.627C186.609,165.946,185.393,154.781,177.756,148.643z"/>
	</g>
</g>
<g>
	<g>
		<path d="M251.423,157.823l-10.205-8.2c-4.675-3.757-7.31-9.351-7.228-15.348c0.08-5.997,2.867-11.517,7.641-15.147
			c13.342-10.14,21.229-25.564,21.637-42.317s-6.716-32.544-19.547-43.322c-7.501-6.302-18.692-5.329-24.992,2.172
			c-6.302,7.501-5.329,18.691,2.172,24.992c4.529,3.804,7.045,9.378,6.899,15.291c-0.144,5.913-2.928,11.358-7.637,14.936
			c-13.528,10.28-21.419,25.922-21.649,42.913c-0.231,16.99,7.234,32.84,20.479,43.483l3.807,3.058l6.398,5.142
			c3.278,2.632,7.203,3.912,11.102,3.912c5.19,0,10.335-2.267,13.839-6.627c0.621-0.773,1.147-1.589,1.618-2.426
			C259.943,172.909,258.287,163.338,251.423,157.823z"/>
	</g>
</g>
<g>
	<g>
		<path d="M322.319,148.643l-8.7-6.992c-3.355-2.696-5.246-6.71-5.188-11.014c0.058-4.303,2.057-8.265,5.484-10.869
			c12.012-9.13,19.112-23.016,19.48-38.1c0.368-15.084-6.047-29.299-17.599-39.003c-7.502-6.301-18.692-5.328-24.993,2.174
			c-6.301,7.501-5.328,18.691,2.174,24.993c4.45,3.737,5.012,8.478,4.952,10.972c-0.061,2.493-0.854,7.201-5.48,10.718
			c-12.18,9.256-19.285,23.338-19.49,38.635c-0.207,15.297,6.513,29.566,18.439,39.15l8.7,6.992
			c3.277,2.633,7.201,3.912,11.101,3.912c5.19,0,10.335-2.267,13.839-6.627C331.172,165.946,329.956,154.781,322.319,148.643z"/>
	</g>
</g>
<g>
</g>
<g>
</g>
<g>
</g>
<g>
</g>
<g>
</g>
<g>
</g>
<g>
</g>
<g>
</g>
<g>
</g>
<g>
</g>
<g>
</g>
<g>
</g>
<g>
</g>
<g>
</g>
<g>
</g>
</svg>
