<?xml version="1.0" encoding="UTF-8"?>
<svg width="244px" height="230px" viewBox="0 0 244 230" version="1.1" xmlns="http://www.w3.org/2000/svg" xmlns:xlink="http://www.w3.org/1999/xlink">
    <!-- Generator: Sketch 55.2 (78181) - https://sketchapp.com -->
    <title>Logo</title>
    <desc>Created with Sketch.</desc>
    <defs>
        <path d="M106.337016,98.7997963 L63.0899545,123.570655 C58.9970198,125.91444 53.9546983,125.91444 49.861857,123.570655 L6.61395537,98.7997963 C2.52111405,96.4552699 -5.07221701e-15,92.1236493 -4.78514071e-15,87.4353375 L-1.75158541e-15,37.8936199 C-1.46450911e-15,33.2053081 2.52111405,28.873039 6.61395537,26.5292537 L49.861857,1.75839485 C53.9546983,-0.586131618 58.9970198,-0.586131618 63.0899545,1.75839485 L106.337016,26.5292537 C110.42995,28.873039 112.951064,33.2053081 112.951064,37.8936199 L112.951064,87.4353375 C112.951064,92.1236493 110.42995,96.4552699 106.337016,98.7997963 Z M82.6150471,41.7683515 C79.3715736,50.8470221 76.1049397,59.9486691 72.8391463,69.0602294 L71.8026281,69.0602294 C68.5476678,59.9265265 65.281781,50.8027368 62.0268207,41.6911765 L51.872043,41.6911765 C48.5723496,50.9027956 45.3065562,60.0257515 42.0407628,69.1602882 L41.0927769,69.1602882 C37.7823438,59.9371809 34.4719107,50.7148147 31.2722364,41.8126368 L19.1446281,41.8126368 C25.0417339,58.5659118 30.7933405,74.8990324 36.5448537,91.2321529 L46.554786,91.2321529 L56.4646992,63.5972029 L57.4680645,63.5972029 C60.7784975,72.8645956 64.0781909,82.1427353 67.3216645,91.2099176 L77.3540099,91.2099176 C83.127843,74.8103691 88.8794496,58.4665941 94.7542355,41.7683515 L82.6150471,41.7683515 Z" id="path-1"></path>
    </defs>
    <g id="Page-1" stroke="none" stroke-width="1" fill="none" fill-rule="evenodd">
        <g id="Webiny-Logo-Icon" transform="translate(-176.000000, -199.000000)">
            <g id="Logo" transform="translate(176.000000, 199.000000)">
                <path d="M108.227957,202.403231 L108.227957,210.541831 L145.069957,210.541831 L145.069957,202.403231 L108.227957,202.403231 Z M145.111157,283.722731 C137.838457,283.722731 130.928557,283.739231 124.018557,283.714431 C119.425757,283.689731 116.193357,280.424431 116.234657,275.930531 C116.267557,271.395331 118.568157,269.292631 123.680557,269.259731 C129.724657,269.218431 135.777057,269.259731 141.821157,269.234931 C142.917857,269.226731 144.014457,269.045331 145.061757,268.946331 L145.061757,260.997431 C144.731857,260.857231 144.558757,260.717131 144.385557,260.717131 C135.752257,260.692331 127.102457,260.552231 118.469157,260.717131 C114.263857,260.799531 110.973857,262.778531 109.209257,266.926131 C112.037557,271.172731 111.790157,275.872731 111.212957,280.581131 C110.734657,284.423631 110.998557,288.183631 111.831357,292.314731 C122.963157,292.281831 134.012457,292.405431 145.111157,292.232331 L145.111157,283.722731 Z M144.146457,247.053931 C145.713157,243.656631 146.389257,240.036831 145.531757,236.408631 C144.822557,233.407231 143.527957,230.545931 142.456057,227.536231 C143.585757,226.233431 144.872057,224.740931 146.298557,223.108331 C144.468057,221.071631 142.893057,219.307031 141.318157,217.550631 C136.601557,221.310731 136.601557,221.310731 130.458457,221.310731 C124.125757,221.310731 117.784857,221.310731 111.452057,221.318931 C110.429657,221.318931 109.398857,221.409631 108.244457,221.467431 L108.244457,229.861531 L128.883557,229.861531 C133.369257,229.861531 136.378957,232.203331 137.508657,236.573631 C138.827957,241.685931 136.807757,244.357531 131.546957,244.374031 C124.834957,244.398831 118.114657,244.374031 111.394357,244.390531 C110.371857,244.390531 109.349457,244.489531 108.310457,244.547231 L108.310457,252.809431 C117.826057,252.809431 127.127257,252.974331 136.420157,252.735231 C139.998857,252.636231 142.629257,250.343931 144.146457,247.053931 Z M131.876757,148.006131 C127.729157,143.883231 129.485557,138.762631 129.205157,133.938931 C134.325757,134.285231 138.234257,138.300931 137.937357,142.638131 C137.657057,146.711531 136.007857,148.286431 131.876757,148.006131 Z M116.762357,148.723531 C115.599657,145.804531 115.261657,142.778331 115.888257,139.677931 C116.506757,136.594031 117.982657,135.109831 121.239757,134.524331 C121.239757,136.280731 121.248057,137.979331 121.239757,139.669631 C121.198557,143.660631 121.759257,147.536131 123.655757,151.098231 C127.539557,158.379231 137.591057,159.278031 142.406557,152.689731 C147.518957,145.705531 147.081957,135.282931 139.899857,129.247031 C134.515457,124.728431 128.215657,123.846131 121.470657,124.926331 C115.962457,125.816831 111.798357,128.661631 109.316457,133.617331 C105.787257,140.659131 107.659057,152.491831 113.216657,158.643131 C115.212157,157.266131 117.232357,155.872531 119.244257,154.495531 C118.337257,152.409331 117.496257,150.587031 116.762357,148.723531 Z M131.901557,295.637831 C131.827257,295.101831 131.489257,294.607131 131.225357,293.996931 L122.831157,293.996931 C123.012557,295.126531 123.235257,296.058331 123.292957,296.998331 C123.441357,299.356631 122.163257,301.665431 120.324457,302.506531 C118.263057,303.454731 115.319357,302.910531 113.727857,301.096431 C112.928057,300.181231 112.119957,299.092731 111.814857,297.946631 C111.081057,295.192531 110.289457,292.372531 110.173957,289.544231 C109.951357,284.374131 110.289457,279.179331 110.132757,274.001031 C110.000857,269.812131 107.856957,265.870731 104.278257,263.693831 C98.0609565,259.917231 89.4359565,261.690131 85.2471565,267.396131 C81.1819565,272.937331 81.9075565,281.199531 86.9539565,286.105731 C90.5903565,289.643131 95.1255565,291.168631 100.336857,291.968431 L100.336857,283.318631 C99.3968565,283.021831 98.2836565,282.757931 97.2364565,282.329131 C96.0902565,281.859131 94.9193565,281.372631 93.9051565,280.680031 C91.3984565,278.964931 90.5738565,275.881031 91.7859565,273.316631 C92.7424565,271.288131 95.5213565,269.952331 97.8548565,270.397631 C100.716157,270.941831 101.730357,272.409531 101.738557,276.136631 C101.755057,281.413931 101.573657,286.691131 101.746857,291.960231 C101.928257,297.237431 103.445457,302.168431 106.776757,306.382031 C110.701757,311.354131 117.809557,313.052831 123.696957,310.504831 C129.122657,308.154831 132.742557,301.624231 131.901557,295.637831 Z M115.599657,177.468131 C115.607957,175.843731 115.863557,174.219331 116.044957,172.116631 C121.808757,172.116631 127.366357,171.902231 132.899257,172.207331 C135.645057,172.355831 137.170557,174.747031 137.879657,177.229031 C138.712457,180.123231 138.473357,182.968031 136.115057,185.235631 C132.082957,189.094631 123.680557,189.531631 119.219557,186.142631 C116.325357,183.941031 115.583157,180.840631 115.599657,177.468131 Z M146.372757,178.606031 C146.249057,176.536331 145.581157,174.499631 145.086457,172.100131 L160.679157,172.100131 L160.679157,163.384431 L109.563857,163.384431 C108.203257,167.292931 107.213757,175.217031 107.535357,179.183231 C108.302257,188.665831 113.092957,194.668731 121.973657,196.524031 C125.098757,197.183731 128.504257,197.216631 131.670657,196.754931 C141.202657,195.377831 146.933457,188.162831 146.372757,178.606031 Z M145.078157,115.328231 C138.308457,112.928731 131.522157,110.512731 124.727757,108.096731 L124.727757,107.329931 C131.538657,104.922131 138.341457,102.506131 145.135957,100.098431 L145.135957,92.5865306 C138.267257,90.1458306 131.464457,87.7297306 124.653557,85.3137306 L124.653557,84.6129306 C131.530457,82.1639306 138.407357,79.7149306 145.045257,77.3484306 L145.045257,68.3770306 C132.552957,72.7390306 120.373957,76.9938306 108.195057,81.2486306 L108.195057,88.6533306 L128.801157,95.9837306 L128.801157,96.7258306 C121.891157,99.1748306 114.973057,101.615631 108.211557,104.015131 L108.211557,111.436231 C120.439957,115.707531 132.627157,119.962331 145.078157,124.307831 L145.078157,115.328231 Z" id="Fill-1" fill="#FA5A28" transform="translate(121.651063, 190.028094) rotate(-90.000000) translate(-121.651063, -190.028094) "></path>
                <g id="Webiny-Icon-Orange" transform="translate(65.000000, 0.000000)">
                    <mask id="mask-2" fill="white">
                        <use xlink:href="#path-1"></use>
                    </mask>
                    <use id="Mask" fill="#FA5A28" fill-rule="evenodd" xlink:href="#path-1"></use>
                    <g id="Orange" mask="url(#mask-2)"></g>
                </g>
            </g>
        </g>
    </g>
</svg>